<svg xmlns="http://www.w3.org/2000/svg" version="1.1" xmlns:xlink="http://www.w3.org/1999/xlink" xmlns:svgjs="http://svgjs.dev/svgjs" width="128" height="128" viewBox="0 0 128 128"><g transform="matrix(0.8046875,0,0,0.8046875,12.51406582634214,12.282621554553721)"><svg viewBox="0 0 96 96" data-background-color="#ffffff" preserveAspectRatio="xMidYMid meet" height="128" width="128" xmlns="http://www.w3.org/2000/svg" xmlns:xlink="http://www.w3.org/1999/xlink"><g id="tight-bounds" transform="matrix(1,0,0,1,-0.01310989639655702,0.20260515303731097)"><svg viewBox="0 0 95.481 95.46826784938972" height="95.46826784938972" width="95.481"><g><svg viewBox="0 0 95.481 95.46826784938972" height="95.46826784938972" width="95.481"><g><svg viewBox="0 0 95.481 95.46826784938972" height="95.46826784938972" width="95.481"><g id="textblocktransform"><svg viewBox="0 0 95.481 95.46826784938972" height="95.46826784938972" width="95.481" id="textblock"><g><svg viewBox="0 0 95.481 95.46826784938972" height="95.46826784938972" width="95.481"><g><svg viewBox="0 0 95.481 95.46826784938972" height="95.46826784938972" width="95.481"><g><svg xmlns="http://www.w3.org/2000/svg" viewBox="0 0 64.00853527825481 63.99999990146251" x="0" y="0" width="95.481" height="95.46826784938972" class="icon-icon-0" data-fill-palette-color="accent" id="icon-0"><g data-name="23-tasty" fill="#0f0f0e" data-fill-palette-color="accent"><path d="M25.105 37.447a1 1 0 0 0 1.79-0.894A4.692 4.692 0 0 0 23 34a4.692 4.692 0 0 0-3.895 2.553 1 1 0 0 0 1.787 0.9A2.727 2.727 0 0 1 23 36 2.725 2.725 0 0 1 25.105 37.447Z" fill="#000000" data-fill-palette-color="accent"></path><path d="M41 34a4.692 4.692 0 0 0-3.895 2.553 1 1 0 0 0 1.787 0.9A2.727 2.727 0 0 1 41 36a2.724 2.724 0 0 1 2.108 1.452 1 1 0 0 0 1.787-0.899A4.692 4.692 0 0 0 41 34Z" fill="#000000" data-fill-palette-color="accent"></path><path d="M44.076 18h-0.083C39.234 18.031 34.857 20.927 32 25.841 29.143 20.927 24.766 18.031 20.007 18h-0.083A14.597 14.597 0 0 0 9.79 22.378 16.246 16.246 0 0 0 5 34C5 48.774 30.427 63.262 31.51 63.871a0.997 0.997 0 0 0 0.98 0C33.573 63.262 59 48.774 59 34a16.246 16.246 0 0 0-4.79-11.622A14.591 14.591 0 0 0 44.076 18ZM32 61.843C28.456 59.749 7 46.549 7 34a14.259 14.259 0 0 1 4.199-10.203A12.584 12.584 0 0 1 19.923 20h0.07c4.504 0.029 8.653 3.179 11.101 8.423a1 1 0 0 0 1.812 0C35.354 23.179 39.503 20.029 44.007 20h0.07a12.584 12.584 0 0 1 8.724 3.797A14.259 14.259 0 0 1 57 34C57 46.549 35.544 59.749 32 61.843Z" fill="#000000" data-fill-palette-color="accent"></path><path d="M16.553 23.105C16.285 23.239 10 26.446 10 32a1 1 0 0 0 2 0c0-4.313 5.394-7.079 5.448-7.106a1 1 0 0 0-0.895-1.789Z" fill="#000000" data-fill-palette-color="accent"></path><rect x="10" y="35" width="2" height="2" fill="#000000" data-fill-palette-color="accent"></rect><path d="M41.708 45.295A1 1 0 0 0 40.294 45.292C40.257 45.329 36.512 49 32 49s-8.257-3.671-8.294-3.708A1 1 0 0 0 22.293 46.707C22.468 46.883 26.647 51 32 51a11.04 11.04 0 0 0 2.259-0.246l0.744 1.487a3.683 3.683 0 0 0 6.589-3.294l-0.697-1.394a0.937 0.937 0 0 0-0.059-0.075c0.518-0.424 0.826-0.726 0.871-0.771A0.999 0.999 0 0 0 41.708 45.295ZM39.803 49.842A1.683 1.683 0 0 1 36.792 51.347l-0.583-1.165c0.216-0.082 0.429-0.167 0.636-0.257l0.26 0.522a1 1 0 1 0 1.79-0.894l-0.269-0.537c0.204-0.12 0.397-0.24 0.584-0.36Z" fill="#000000" data-fill-palette-color="accent"></path><path d="M64 5c0-2.757-1.794-5-4-5s-4 2.243-4 5a4.92 4.92 0 0 0 3 4.823V17a1 1 0 0 0 2 0V9.823A4.92 4.92 0 0 0 64 5ZM60 8c-1.084 0-2-1.374-2-3s0.916-3 2-3 2 1.374 2 3S61.084 8 60 8Z" fill="#000000" data-fill-palette-color="accent"></path><path d="M49 9v8a1 1 0 0 0 2 0V9a3.003 3.003 0 0 0 3-3V1a1 1 0 0 0-2 0V6a1.001 1.001 0 0 1-1 1V1a1 1 0 0 0-2 0V7a1.001 1.001 0 0 1-1-1V1a1 1 0 0 0-2 0V6A3.003 3.003 0 0 0 49 9Z" fill="#000000" data-fill-palette-color="accent"></path><path d="M5 8A0.999 0.999 0 0 0 6 7V5A1 1 0 0 0 4 5V7A0.999 0.999 0 0 0 5 8Z" fill="#000000" data-fill-palette-color="accent"></path><path d="M6 13V11a1 1 0 0 0-2 0v2a1 1 0 0 0 2 0Z" fill="#000000" data-fill-palette-color="accent"></path><path d="M7 10H9A1 1 0 0 0 9 8H7a1 1 0 0 0 0 2Z" fill="#000000" data-fill-palette-color="accent"></path><path d="M3 8H1a1 1 0 0 0 0 2H3A1 1 0 0 0 3 8Z" fill="#000000" data-fill-palette-color="accent"></path><path d="M19 14a3 3 0 1 0-3-3A3.003 3.003 0 0 0 19 14Zm0-4a1 1 0 1 1-1 1A1.001 1.001 0 0 1 19 10Z" fill="#000000" data-fill-palette-color="accent"></path></g></svg></g></svg></g></svg></g></svg></g></svg></g><g></g></svg></g><defs></defs></svg><rect width="95.481" height="95.46826784938972" fill="none" stroke="none" visibility="hidden"></rect></g></svg></g></svg>